<?xml version="1.0" standalone="no"?>
<!DOCTYPE svg PUBLIC "-//W3C//DTD SVG 20010904//EN"
 "http://www.w3.org/TR/2001/REC-SVG-20010904/DTD/svg10.dtd">
<svg version="1.0" xmlns="http://www.w3.org/2000/svg"
 width="1600.000000pt" height="1600.000000pt" viewBox="0 0 1600.000000 1600.000000"
 preserveAspectRatio="xMidYMid meet">
<metadata>
Created by potrace 1.15, written by Peter Selinger 2001-2017
</metadata>
<g transform="translate(0.000000,1600.000000) scale(0.100000,-0.100000)"
fill="#000000" stroke="none">
<path d="M0 8000 l0 -8000 8000 0 8000 0 0 8000 0 8000 -8000 0 -8000 0 0
-8000z m8583 7330 c110 -11 203 -17 208 -14 5 3 9 2 9 -3 0 -4 26 -9 59 -9 83
-2 547 -77 676 -109 33 -9 71 -17 85 -19 28 -4 135 -30 195 -46 22 -6 56 -15
75 -20 231 -53 725 -226 1035 -361 280 -123 673 -327 895 -466 319 -200 594
-397 860 -618 291 -241 478 -422 835 -811 5 -6 21 -24 34 -40 14 -16 49 -57
78 -90 29 -34 64 -75 76 -92 12 -17 71 -95 132 -174 130 -170 129 -167 269
-380 117 -176 153 -232 199 -313 16 -27 33 -54 37 -60 8 -11 33 -56 142 -259
129 -240 266 -541 368 -811 23 -60 49 -126 57 -145 9 -19 19 -51 23 -70 4 -19
24 -82 43 -140 20 -58 43 -132 53 -165 9 -33 21 -71 27 -85 5 -14 12 -34 14
-45 10 -56 31 -118 32 -95 1 20 3 22 11 10 5 -8 10 -46 10 -83 0 -65 19 -156
41 -203 6 -11 9 -24 8 -30 -3 -20 2 -28 10 -16 5 9 13 -9 21 -55 7 -37 16 -78
21 -90 4 -12 9 -56 10 -97 2 -42 5 -73 8 -70 7 7 29 -95 41 -191 5 -44 14
-105 19 -135 46 -278 38 -957 -20 -1570 -11 -118 -24 -244 -29 -280 -5 -36
-10 -93 -10 -127 0 -67 -7 -96 -21 -87 -5 3 -9 -19 -10 -48 0 -29 -4 -75 -9
-103 -6 -27 -14 -86 -19 -130 -5 -44 -20 -127 -33 -185 -20 -91 -23 -100 -28
-70 l-6 35 -8 -48 c-5 -26 -6 -56 -3 -68 3 -11 -1 -44 -9 -72 -8 -29 -21 -79
-30 -112 -44 -170 -165 -534 -243 -730 -97 -245 -136 -334 -260 -587 -86 -175
-91 -171 -91 84 0 599 -52 1487 -120 2045 l-30 243 -2 1132 -3 1133 -5 -1095
c-3 -602 -8 -1066 -12 -1031 -5 35 -8 562 -8 1170 l0 1106 -27 113 c-17 68
-30 106 -34 95 -3 -10 -9 9 -12 45 -13 118 -175 583 -300 857 -175 383 -320
645 -543 980 -86 130 -145 215 -188 270 -48 63 -180 229 -186 235 -3 3 -18 20
-33 38 l-27 34 0 -149 c0 -204 -17 -470 -40 -644 -22 -167 -25 -179 -51 -179
-18 0 -19 17 -19 548 l0 549 -57 64 c-133 150 -437 442 -597 574 -45 37 -108
90 -163 136 -107 89 -507 369 -643 449 -207 123 -327 189 -485 267 -136 68
-397 187 -435 198 -14 4 -31 12 -37 17 -10 8 -13 3 -14 -18 l-1 -29 -7 30 c-3
17 -14 31 -24 33 -16 3 -17 -50 -17 -976 0 -539 -3 -989 -7 -999 -5 -10 -10
421 -13 957 l-5 975 -3 -1015 c-1 -603 -6 -1029 -12 -1050 -5 -19 -16 -89 -24
-155 -19 -147 -38 -300 -71 -550 -13 -104 -29 -226 -34 -270 -13 -107 -137
-1117 -151 -1225 -20 -157 -22 -164 -31 -149 -5 9 -9 -25 -9 -86 0 -55 -5
-129 -10 -165 -5 -36 -14 -112 -20 -170 -6 -58 -24 -215 -40 -350 -32 -259
-89 -744 -115 -970 -9 -74 -20 -168 -25 -208 -6 -40 -10 -110 -10 -155 0 -50
-4 -77 -9 -68 -11 16 -15 -11 -87 -499 -8 -58 -24 -163 -35 -235 -11 -71 -26
-175 -34 -230 -9 -55 -22 -140 -30 -190 -8 -49 -24 -153 -35 -230 -12 -77 -35
-221 -51 -320 l-28 -180 -3 -742 c-2 -408 -6 -745 -11 -749 -8 -8 -47 -14
-267 -39 -74 -9 -162 -20 -195 -25 -57 -10 -61 -9 -81 14 -23 26 -66 131 -90
219 -28 99 -52 243 -73 427 -94 836 -103 902 -130 973 -6 16 -12 49 -12 75 -1
26 -5 61 -9 77 l-8 30 -1 -29 c0 -16 -3 -27 -6 -24 -3 2 -9 107 -13 232 -5
139 -12 230 -18 234 -6 4 -14 63 -17 132 -4 69 -16 195 -27 280 -11 85 -50
387 -85 670 -36 283 -69 547 -75 585 -5 39 -19 147 -30 240 -12 94 -27 215
-35 270 -7 55 -21 159 -30 230 -9 72 -22 177 -30 235 -8 58 -20 150 -26 205
-14 115 -28 156 -29 81 -1 -165 -36 130 -50 414 -8 189 -30 393 -38 358 -2
-10 -9 -18 -16 -18 -16 0 -26 92 -26 255 0 120 -6 184 -35 390 -8 61 -20 156
-27 213 -7 62 -15 98 -20 90 -4 -7 -5 -25 -2 -40 5 -23 2 -28 -14 -28 -22 0
-23 10 -42 480 -8 217 -36 472 -52 478 -4 2 -8 31 -9 65 0 34 -10 139 -23 232
-18 143 -24 170 -38 167 -24 -4 -29 20 -34 197 -2 92 -10 196 -16 234 -9 55
-9 72 3 94 19 36 105 73 169 73 46 0 398 38 545 59 33 5 80 9 105 10 25 1 83
8 130 16 47 8 115 16 151 18 36 2 71 7 77 11 7 4 16 5 21 2 4 -3 66 1 137 10
71 8 141 13 157 10 16 -3 27 -1 27 6 0 7 12 8 32 4 18 -4 65 -3 105 0 l73 7
-2 696 -3 696 -55 12 c-234 54 -580 105 -875 129 -44 3 -98 8 -120 11 -61 8
-799 10 -810 2 -5 -3 -106 -14 -224 -25 -118 -10 -209 -20 -202 -22 8 -3 11
-408 11 -1597 0 -1560 0 -1594 19 -1600 23 -7 41 -28 46 -52 2 -10 4 -404 4
-875 l1 -858 55 0 c52 0 55 -1 55 -25 0 -16 -15 -41 -40 -67 -43 -45 -70 -94
-70 -127 0 -12 21 -45 47 -72 46 -49 47 -51 28 -65 -17 -13 -21 -29 -23 -108
-3 -79 -1 -99 18 -139 20 -42 20 -48 7 -62 -9 -8 -19 -15 -24 -15 -5 0 -6 -29
-3 -64 5 -61 8 -67 58 -119 42 -45 52 -62 52 -90 0 -51 -18 -92 -51 -118 -68
-52 -77 -127 -27 -219 30 -53 31 -60 19 -84 -8 -14 -22 -28 -32 -31 -26 -9
-29 -33 -29 -271 l0 -220 31 -64 c28 -58 31 -74 36 -199 6 -154 -8 -457 -39
-826 -16 -194 -22 -370 -27 -785 -5 -465 -8 -539 -22 -564 l-16 -29 -7 34 c-3
19 -6 266 -5 549 0 283 -1 569 -2 635 l-2 120 -12 -200 c-7 -110 -18 -274 -24
-365 -6 -91 -11 -207 -11 -259 0 -52 -2 -92 -5 -89 -3 3 -5 551 -6 1219 0 668
-4 1230 -8 1249 -5 20 -10 -629 -12 -1510 l-4 -1545 -5 1460 c-3 803 -8 1442
-12 1420 -4 -22 -9 -683 -10 -1470 l-3 -1430 -5 1370 c-3 754 -6 1365 -8 1359
-31 -136 -32 -193 -36 -1514 -3 -729 -6 -1338 -7 -1354 -1 -22 -26 -53 -103
-131 -162 -163 -371 -294 -601 -375 -33 -12 -69 -25 -80 -30 -75 -34 -341 -95
-540 -124 -414 -62 -1039 -61 -1270 1 -124 33 -191 83 -217 161 -18 54 -24
1307 -6 1340 13 25 20 25 133 4 17 -3 107 -5 200 -5 188 -1 239 9 355 65 78
38 192 147 237 228 17 30 43 91 57 135 l26 80 0 672 c0 370 -5 750 -10 845
-15 271 -40 882 -40 1000 l0 107 -55 113 c-30 62 -55 117 -55 121 0 5 9 22 20
37 20 28 20 47 22 1426 l3 1399 65 7 c36 5 94 10 130 13 36 3 133 12 215 21
83 8 242 17 355 20 113 3 248 10 300 15 52 6 124 12 159 14 35 2 114 9 175 16
61 7 192 13 291 13 l180 1 20 -62 c11 -34 25 -65 32 -67 16 -7 19 2507 3 2549
-8 22 -8 30 2 37 8 6 2 7 -17 4 -16 -3 -50 -8 -75 -11 -229 -32 -640 -128
-890 -207 -104 -33 -393 -134 -425 -148 -11 -5 -60 -25 -110 -45 -49 -20 -103
-42 -120 -50 -16 -7 -73 -32 -125 -55 -248 -111 -569 -289 -845 -469 -188
-122 -235 -158 -229 -176 5 -11 -1 -15 -21 -15 -82 0 -746 -581 -1004 -878
l-54 -62 2 -120 c2 -104 0 -120 -13 -120 -11 0 -16 9 -16 26 0 21 -3 24 -13
15 -21 -17 -27 -3 -27 57 0 29 -4 52 -9 50 -16 -6 -248 -297 -331 -415 -218
-309 -362 -547 -514 -848 -56 -110 -110 -220 -120 -245 -21 -48 -56 -129 -86
-195 -10 -22 -48 -121 -85 -220 -151 -402 -249 -768 -265 -988 -6 -83 -10
-590 -10 -1222 0 -887 -3 -1100 -15 -1190 -58 -439 -104 -1189 -121 -1951 -3
-172 -10 -318 -14 -325 -20 -31 -290 571 -422 941 -90 249 -208 664 -208 731
0 20 -4 29 -8 22 -7 -11 -45 169 -73 347 -7 41 -16 83 -21 93 -5 10 -14 78
-19 150 -5 73 -14 159 -19 192 -11 64 -21 167 -47 475 -20 247 -25 1183 -6
1270 6 30 16 100 22 155 17 159 40 288 53 296 6 4 15 47 20 96 7 79 11 118 17
148 1 6 5 4 10 -4 6 -9 11 0 16 30 4 24 17 82 29 129 13 47 21 94 20 105 -5
28 6 96 15 91 4 -3 22 46 40 108 18 63 38 124 44 137 7 13 14 38 15 54 2 17
10 44 17 60 7 17 25 68 40 115 24 77 54 163 75 215 4 11 22 58 40 105 18 47
44 110 57 140 14 30 31 71 38 90 18 52 86 199 192 415 129 265 348 626 587
970 25 35 263 343 309 399 255 311 676 730 1012 1007 234 194 638 477 873 614
20 11 207 118 267 153 177 100 573 285 809 378 192 76 463 169 621 213 44 12
100 29 125 36 91 27 156 44 190 50 19 3 58 12 85 20 43 12 141 33 305 65 25 5
95 16 155 25 61 9 133 20 160 25 90 16 198 30 284 35 46 3 147 11 225 19 77 8
179 15 225 15 46 1 87 4 90 7 13 14 618 -5 814 -26z m-6847 -8955 c19 -61 33
-122 34 -137 0 -16 5 -28 10 -28 6 0 10 -10 10 -21 0 -19 58 -210 80 -264 4
-11 27 -74 51 -140 72 -202 147 -377 279 -645 84 -170 158 -310 176 -331 8 -8
14 -23 14 -32 0 -9 4 -19 10 -22 5 -3 33 -45 61 -93 65 -111 213 -333 293
-440 74 -101 208 -275 216 -282 3 -3 16 -18 29 -35 92 -120 345 -390 547 -586
82 -78 343 -308 405 -354 393 -299 509 -377 814 -553 460 -264 938 -468 1435
-612 394 -113 696 -171 1190 -225 198 -22 762 -31 1000 -16 234 15 629 63 791
97 68 14 135 27 149 30 339 60 921 247 1274 408 39 18 100 46 136 62 59 26
100 46 295 147 383 198 888 546 1220 841 267 236 561 540 744 766 153 189 365
482 451 620 18 30 56 91 83 135 28 44 66 109 85 145 19 36 40 72 47 80 6 8 21
33 32 55 11 22 46 92 78 155 81 162 185 388 185 403 0 7 4 17 8 22 8 9 30 63
97 240 57 151 65 174 105 300 23 72 45 132 50 135 4 3 10 32 14 65 10 89 16
105 37 105 19 0 19 -27 19 -1063 0 -1051 0 -1064 -20 -1082 -11 -10 -20 -25
-20 -34 0 -10 -3 -12 -10 -5 -6 6 -11 352 -13 974 l-2 965 -2 -993 -3 -993
-77 -117 c-43 -64 -81 -118 -85 -120 -5 -2 -8 -8 -8 -14 0 -18 -225 -323 -364
-493 -252 -309 -647 -715 -911 -935 -83 -69 -152 -127 -155 -130 -3 -3 -34
-28 -70 -55 -36 -27 -88 -68 -116 -91 -174 -141 -624 -436 -859 -564 -243
-133 -342 -183 -525 -267 -41 -19 -88 -41 -105 -48 -191 -89 -582 -232 -845
-310 -508 -150 -878 -220 -1490 -282 -249 -25 -978 -25 -1230 0 -468 47 -727
89 -1120 184 -582 139 -1214 380 -1712 652 -32 17 -84 45 -115 62 -32 17 -70
40 -85 50 -14 11 -30 19 -35 19 -4 1 -39 21 -78 45 -38 25 -83 52 -100 61 -72
40 -375 248 -535 368 -584 437 -1057 913 -1482 1487 -43 57 -82 110 -88 117
-34 39 -261 387 -266 407 -3 14 -10 25 -15 25 -4 0 -24 28 -43 62 l-35 62 -1
856 c-1 470 -3 927 -5 1015 -8 328 13 385 71 190z m8654 -1280 l5 -930 4 875
c2 595 6 862 13 835 5 -22 12 -47 15 -55 4 -8 6 -18 5 -21 -1 -4 61 -9 136
-11 120 -4 214 0 357 18 22 2 76 8 120 13 120 13 293 41 354 57 29 7 57 11 61
9 5 -3 48 3 97 14 150 32 260 52 310 56 27 2 73 9 103 15 198 38 583 60 739
42 l55 -7 17 -55 c43 -135 43 -126 48 -796 l6 -651 -60 -12 c-296 -56 -622
-107 -1010 -156 -148 -19 -304 -39 -345 -44 -41 -6 -167 -22 -280 -36 -195
-24 -421 -54 -575 -75 -38 -5 -103 -12 -142 -16 l-73 -6 0 958 c0 916 1 957
18 934 16 -23 17 -90 22 -955z"/>
<path d="M7145 12915 c0 -830 1 -1172 2 -758 2 413 2 1093 0 1510 -1 417 -2
79 -2 -752z"/>
<path d="M7115 13140 c0 -674 1 -949 2 -612 2 336 2 888 0 1225 -1 336 -2 61
-2 -613z"/>
</g>
</svg>
